<svg id="Layer_1" enable-background="new 0 0 512 512" height="512" viewBox="0 0 512 512" width="512" xmlns="http://www.w3.org/2000/svg"><g><circle cx="256" cy="256" fill="#ffe65a" r="256"/><g><circle cx="254.628" cy="256" fill="#82bd1c" r="177.358"/><circle cx="254.628" cy="256" fill="#97d729" r="131.281"/><g><g><path d="m377.645 166.72c-1.457-25.073-21.759-45.518-46.823-47.134-7.971-.514-15.576.832-22.421 3.647-13.35 5.489-28.315 5.612-41.799.459-8.461-3.234-17.779-4.731-27.523-4.054-31.654 2.2-57.288 27.772-59.553 59.421-1.298 18.138 4.933 34.818 15.884 47.238 10.049 11.397 16.636 25.47 17.731 40.625.055.754.12 1.51.196 2.269 3.751 37.185 34.248 66.688 71.533 69.257 45.241 3.117 82.908-32.659 82.908-77.232 0-5.953-.674-11.747-1.948-17.312-3.91-17.077-2.291-35.06 5.98-50.504 4.218-7.875 6.397-17.002 5.835-26.68z" fill="#fff"/><circle cx="280.977" cy="230.289" fill="#ffe65a" r="44.474"/><path d="m251.931 230.289c0-21.93 15.877-40.139 36.76-43.793-2.507-.439-5.081-.68-7.714-.68-24.562 0-44.474 19.911-44.474 44.474 0 24.562 19.911 44.473 44.474 44.473 2.632 0 5.207-.242 7.714-.68-20.884-3.655-36.76-21.865-36.76-43.794z" fill="#fed402"/></g></g><g><g><path d="m280.486 416.632c-103.408 0-187.537-84.129-187.537-187.536 0-12.917 10.472-23.39 23.39-23.39s23.39 10.473 23.39 23.39c0 77.613 63.144 140.757 140.757 140.757 12.917 0 23.39 10.473 23.39 23.39 0 12.916-10.473 23.389-23.39 23.389z" fill="#fd4755"/></g><path d="m281.568 387.138c10.913.489 12.423-15.91 1.568-17.137-.87-.098-1.754-.149-2.65-.149-77.614 0-140.757-63.144-140.757-140.757 0-.948-.056-1.883-.166-2.802-1.456-12.193-19.715-10.446-19.336 1.828 2.706 87.702 67.709 154.82 161.341 159.017z" fill="#e33442"/><g fill="#fd6571"><ellipse cx="105.363" cy="263.932" rx="8.995" ry="21.275" transform="matrix(.985 -.171 .171 .985 -43.524 21.87)"/><circle cx="114.199" cy="301.043" r="4.989"/></g></g></g><g fill="#73c8f0"><path d="m476.098 104.828v48.993c0 2.227-1.506 4.27-3.694 4.689-2.944.564-5.518-1.677-5.518-4.518v-49.164h-7.927v49.164c0 2.544-2.062 4.606-4.606 4.606h-1.376c-2.544 0-4.606-2.062-4.606-4.606v-49.164h-7.927v77.207c0 7.715 4.013 14.485 10.064 18.352 4.747 3.034 7.546 8.337 7.285 13.965l-8.284 178.814c-.33 7.635 5.771 14.005 13.414 14.005 7.642 0 13.743-6.37 13.413-14.005l-8.326-179.711c-.249-5.379 2.289-10.496 6.703-13.58 5.628-3.933 9.312-10.45 9.312-17.84v-77.207h-7.927z"/><path d="m54.865 104.828c-7.043 0-13.121 4.96-14.535 11.86-10.556 51.478-18.711 98.15-18.8 128.674-.012 4.027 3.263 7.282 7.289 7.282h11.37c1.598 0 2.869 1.341 2.782 2.937l-7.452 137.585c-.33 7.635 5.771 14.005 13.413 14.005s13.743-6.37 13.414-14.005l-7.48-140.523v-147.815z"/></g></g></svg>