<svg height="512" viewBox="0 0 60 53" width="512" xmlns="http://www.w3.org/2000/svg"><g id="Page-1" fill="none" fill-rule="evenodd"><g id="017---Burger-and-Fries" fill-rule="nonzero"><path id="Shape" d="m32 42 .87 8.27c.1349437.990435.9804148 1.7291547 1.98 1.73h-25.85c-2.76142375 0-5-2.2385763-5-5v-3z" fill="#f29c1f"/><path id="Shape" d="m15 44h-11c-1.65685425 0-3-1.3431458-3-3s1.34314575-3 3-3h1l4.75-2z" fill="#603e26"/><path id="Shape" d="m31.83 44h-16.83l6-7 10 1z" fill="#603e26"/><path id="Shape" d="m29.007 23.14 1.5 12.86-25.447-2c-1.0236784.0005403-1.8825139-.7719801-1.99-1.79-.04851538-.4014814-.07189428-.8056023-.07-1.21 0-7.73 8.06-14 18-14 2.7337527-.009357 5.445785.4855889 8 1.46l2 3.54h-.99c-.2907743-.0004035-.5676158.1245324-.759688.3428398s-.2807387.5088044-.243312.7971602z" fill="#f29c1f"/><path id="Shape" d="m30.55 38h-7.55l-7.24 7.24c-.1945507.1968736-.4619976.304307-.7386774.2967267-.2766799-.0075803-.5378432-.1294961-.7213226-.3367267l-1.05-1.2-5.25-6h-3v-4h25z" fill="#f0c419"/><g fill="#f9eab0"><circle id="Oval" cx="10" cy="25" r="1"/><circle id="Oval" cx="14" cy="22" r="1"/><circle id="Oval" cx="24" cy="21" r="1"/><circle id="Oval" cx="7" cy="30" r="1"/><circle id="Oval" cx="12" cy="29" r="1"/><circle id="Oval" cx="16" cy="26" r="1"/></g><path id="Shape" d="m59 53h-58c-.55228475 0-1-.4477153-1-1s.44771525-1 1-1h58c.5522847 0 1 .4477153 1 1s-.4477153 1-1 1z" fill="#d25627"/><path id="Shape" d="m19 22.051c-.3103782.0004248-.6033591-.1432947-.793-.389l-6.1-7.922c-.2202894-.2828012-.2723523-.6618823-.1364609-.9936013.1358913-.331719.4389457-.5653235.7943294-.6122957.3553837-.0469721.7087235.0998747.9261315.384897l6.1 7.922c.232278.3017327.2730363.7091969.1051266 1.05096s-.515344.5585067-.8961266.55904z" fill="#a59078"/><ellipse id="Oval" cx="10.761" cy="10.357" fill="#24ae5f" rx="5" ry="3.5" transform="matrix(.792 -.61 .61 .792 -4.084 8.72)"/><path id="Shape" d="m9.847 10.169c-.31055108.0001858-.60356386-.1439188-.793-.39l-2.442-3.169c-.3368937-.43851409-.25451409-1.0671063.184-1.404s1.0671063-.25451409 1.404.184l2.442 3.169c.232278.30173268.2730363.70919693.1051266 1.05096001-.1679097.34176309-.515344.55850669-.8961266.55903999z" fill="#a59078"/><path id="Shape" d="m56 10h-2c-.5522847 0-1 .4477153-1 1v-4c0-.55228475-.4477153-1-1-1h-2c-.5522847 0-1 .44771525-1 1v-3c0-.55228475-.4477153-1-1-1h-2c-.5522847 0-1 .44771525-1 1v-3c0-.55228475-.4477153-1-1-1h-2c-.5522847 0-1 .44771525-1 1v3c0-.55228475-.4477153-1-1-1h-2c-.5522847 0-1 .44771525-1 1v3c0-.55228475-.4477153-1-1-1h-2c-.5522847 0-1 .44771525-1 1v4c0-.5522847-.4477153-1-1-1h-2c-.5522847 0-1 .4477153-1 1v12.84h2.01c.480984-.0023829.8923.3453275.97.82.1539843.8302577.5036462 1.611855 1.02 2.28 1.0474291 1.3143476 2.4289898 2.3228869 4 2.92 1.2793439.5245656 2.625682.8678818 4 1.02 1.3285335.1599968 2.6714665.1599968 4 0 1.3740941-.1533474 2.720264-.4966207 4-1.02 1.5710102-.5971131 2.9525709-1.6056524 4-2.92.5163538-.668145.8660157-1.4497423 1.02-2.28.0777-.4746725.489016-.8223829.97-.82h2.01v-12.84c0-.5522847-.4477153-1-1-1z" fill="#f3d55b"/><path id="Shape" d="m37 10v18.02c-1.5710102-.5971131-2.9525709-1.6056524-4-2.92v-15.1z" fill="#f0c419"/><path id="Shape" d="m33 11v3h-4v-3c0-.5522847.4477153-1 1-1h2c.5522847 0 1 .4477153 1 1z" fill="#f9eab0"/><path id="Shape" d="m57 11v3h-4v-3c0-.5522847.4477153-1 1-1h2c.5522847 0 1 .4477153 1 1z" fill="#f9eab0"/><path id="Shape" d="m45 4v25.04c-1.3285335.1599968-2.6714665.1599968-4 0v-25.04z" fill="#f0c419"/><path id="Shape" d="m41 7v22.04c-1.374318-.1521182-2.7206561-.4954344-4-1.02v-21.02z" fill="#f3d55b"/><path id="Shape" d="m41 4v3h-4v-3c0-.55228475.4477153-1 1-1h2c.5522847 0 1 .44771525 1 1z" fill="#f9eab0"/><path id="Shape" d="m49 4v3h-4v-3c0-.55228475.4477153-1 1-1h2c.5522847 0 1 .44771525 1 1z" fill="#f9eab0"/><path id="Shape" d="m53 10v15.1c-1.0474291 1.3143476-2.4289898 2.3228869-4 2.92v-18.02z" fill="#f0c419"/><path id="Shape" d="m58.99 23.14-3.75 27.13c-.1349437.990435-.9804148 1.7291547-1.98 1.73h-20.52c-.9995852-.0008453-1.8450563-.739565-1.98-1.73l-.87-6.27-.83-6-.55-4-1.5-10.86c-.0373594-.287837.0509191-.5778344.2423219-.7960335.1914027-.2181991.4674271-.3435071.7576781-.3439665h3c.480984-.0023829.8923.3453275.97.82.1539843.8302577.5036462 1.611855 1.02 2.28 1.0474291 1.3143476 2.4289898 2.3228869 4 2.92 1.2793439.5245656 2.625682.8678818 4 1.02 1.3285335.1599968 2.6714665.1599968 4 0 1.3740941-.1533474 2.720264-.4966207 4-1.02 1.5710102-.5971131 2.9525709-1.6056524 4-2.92.5163538-.668145.8660157-1.4497423 1.02-2.28.0777-.4746725.489016-.8223829.97-.82h3c.290251.0004594.5662754.1257674.7576781.3439665.1914028.2181991.2796813.5081965.2423219.7960335z" fill="#e64c3c"/><path id="Shape" d="m43 47c-2.757 0-5-1.794-5-4 0-.5522847.4477153-1 1-1s1 .4477153 1 1c0 1.084 1.374 2 3 2s3-.916 3-2-1.374-2-3-2c-2.757 0-5-1.794-5-4s2.243-4 5-4 5 1.794 5 4c0 .5522847-.4477153 1-1 1s-1-.4477153-1-1c0-1.084-1.374-2-3-2s-3 .916-3 2 1.374 2 3 2c2.757 0 5 1.794 5 4s-2.243 4-5 4z" fill="#f0c419"/></g></g></svg>