<?xml version="1.0" encoding="iso-8859-1"?>
<!-- Generator: Adobe Illustrator 19.0.0, SVG Export Plug-In . SVG Version: 6.00 Build 0)  -->
<svg version="1.1" id="Capa_1" xmlns="http://www.w3.org/2000/svg" xmlns:xlink="http://www.w3.org/1999/xlink" x="0px" y="0px"
	 viewBox="0 0 512.019 512.019" style="enable-background:new 0 0 512.019 512.019;" xml:space="preserve">
<path style="fill:#303C42;" d="M447.28,304.8l-0.365-5.01c-5.865-76.354-41.417-124.219-72.781-166.437
	c-29.042-39.094-54.125-72.854-54.125-122.667c0-4-2.24-7.656-5.792-9.49c-3.563-1.844-7.844-1.542-11.083,0.812
	c-47.104,33.708-86.406,90.521-100.135,144.729c-9.531,37.74-10.792,80.167-10.969,108.188c-43.5-9.292-53.354-74.365-53.458-75.073
	c-0.49-3.375-2.552-6.313-5.552-7.917c-3.031-1.583-6.594-1.698-9.667-0.177c-2.281,1.104-55.99,28.396-59.115,137.375
	c-0.219,3.625-0.229,7.25-0.229,10.885c0,105.865,86.135,192,192,192s192-86.135,192-192
	C448.009,314.706,447.645,309.748,447.28,304.8z"/>
<path style="fill:#FF8F00;" d="M192.009,422.508c0-1.281-0.01-2.573,0.083-4.156c0.427-15.854,3.438-26.677,6.74-33.875
	c6.188,13.292,17.26,25.51,35.219,25.51c5.896,0,10.667-4.771,10.667-10.667c0-15.188,0.313-32.708,4.094-48.521
	c3.365-14.031,11.406-28.938,21.594-40.896c4.531,15.521,13.365,28.083,21.99,40.344c12.344,17.542,25.104,35.677,27.344,66.604
	c0.135,1.833,0.271,3.677,0.271,5.656c0,37.594-28.708,68.177-64,68.177S192.009,460.102,192.009,422.508z"/>
<path style="fill:#FFCA28;" d="M323.421,477.081c11.072-15.099,17.922-33.763,17.922-54.24c0-2.51-0.156-4.844-0.469-9.208
	c-2.531-34.823-17.667-56.344-31.031-75.333c-11.385-16.167-21.208-30.135-21.208-49.948c0-4.052-2.292-7.75-5.917-9.552
	c-3.604-1.813-7.958-1.406-11.177,1.042c-20.458,15.458-37.521,41.479-43.479,66.323c-3.042,12.74-4.104,26.521-4.479,37.854
	c-7.396-7.958-9.688-22.708-9.708-22.906c-0.479-3.427-2.583-6.417-5.656-8.01c-3.052-1.583-6.708-1.625-9.781-0.042
	c-2.688,1.375-26.302,14.917-27.656,64.729c-0.094,1.688-0.104,3.375-0.104,5.052c0,20.477,6.85,39.141,17.922,54.24
	c-60.664-26.195-103.255-86.563-103.255-156.729c0-3.198-0.01-6.385,0.208-9.938c1.833-63.937,22.292-95.646,35.646-109.635
	c9.312,33.333,33.708,76.906,81.479,76.906c5.896,0,10.667-4.771,10.667-10.667c0-35.698,0.802-76.948,10.344-114.719
	c10.833-42.792,40.51-89,76.333-120.281c5.948,45.688,30.833,79.188,56.99,114.385c31.094,41.854,63.24,85.135,68.625,155.219
	l0.365,5.104c0.333,4.438,0.677,8.865,0.677,13.625C426.676,390.519,384.085,450.886,323.421,477.081z"/>
<path style="opacity:0.3;fill:#FFFFFF;enable-background:new    ;" d="M121.197,253.756c9.312,26.941,33.708,62.16,81.479,62.16
	c5.896,0,10.667-3.855,10.667-8.621c0-28.854,0.802-62.195,10.344-92.724c10.833-34.587,40.51-71.935,76.333-97.219
	c5.948,36.927,30.833,64.004,56.99,92.453c31.025,33.754,63.074,68.674,68.568,125.098c0.414-4.84,1.099-9.605,1.099-14.551
	c0-4.76-0.344-9.188-0.677-13.625l-0.365-5.104c-5.385-70.083-37.531-113.365-68.625-155.219
	c-26.156-35.198-51.042-68.698-56.99-114.385c-35.823,31.281-65.5,77.49-76.333,120.281c-9.542,37.771-10.344,79.021-10.344,114.719
	c0,5.896-4.771,10.667-10.667,10.667c-47.771,0-72.167-43.573-81.479-76.906c-13.354,13.99-33.813,45.698-35.646,109.635
	c-0.219,3.552-0.208,6.74-0.208,9.938c0,4.366,0.646,8.563,0.97,12.846C90.134,287.813,108.685,264.349,121.197,253.756z"/>
<linearGradient id="SVGID_1_" gradientUnits="userSpaceOnUse" x1="-41.9545" y1="638.0227" x2="-25.3333" y2="630.2726" gradientTransform="matrix(21.3333 0 0 -21.3333 996.144 13791.875)">
	<stop  offset="0" style="stop-color:#FFFFFF;stop-opacity:0.2"/>
	<stop  offset="1" style="stop-color:#FFFFFF;stop-opacity:0"/>
</linearGradient>
<path style="fill:url(#SVGID_1_);" d="M447.28,304.8l-0.365-5.01c-5.865-76.354-41.417-124.219-72.781-166.437
	c-29.042-39.094-54.125-72.854-54.125-122.667c0-4-2.24-7.656-5.792-9.49c-3.563-1.844-7.844-1.542-11.083,0.812
	c-47.104,33.708-86.406,90.521-100.135,144.729c-9.531,37.74-10.792,80.167-10.969,108.188c-43.5-9.292-53.354-74.365-53.458-75.073
	c-0.49-3.375-2.552-6.313-5.552-7.917c-3.031-1.583-6.594-1.698-9.667-0.177c-2.281,1.104-55.99,28.396-59.115,137.375
	c-0.219,3.625-0.229,7.25-0.229,10.885c0,105.865,86.135,192,192,192s192-86.135,192-192
	C448.009,314.706,447.645,309.748,447.28,304.8z"/>
<g>
</g>
<g>
</g>
<g>
</g>
<g>
</g>
<g>
</g>
<g>
</g>
<g>
</g>
<g>
</g>
<g>
</g>
<g>
</g>
<g>
</g>
<g>
</g>
<g>
</g>
<g>
</g>
<g>
</g>
</svg>
