<?xml version="1.0" encoding="iso-8859-1"?>
<!-- Generator: Adobe Illustrator 19.0.0, SVG Export Plug-In . SVG Version: 6.00 Build 0)  -->
<svg version="1.1" id="Capa_1" xmlns="http://www.w3.org/2000/svg" xmlns:xlink="http://www.w3.org/1999/xlink" x="0px" y="0px"
	 viewBox="0 0 512 512" style="enable-background:new 0 0 512 512;" xml:space="preserve">
<path style="fill:#994C0F;" d="M422,314.74c0,82.8-87.299,150-195,150s-197-67.2-197-150s89.299-150,197-150S422,231.94,422,314.74z
	"/>
<path style="fill:#713708;" d="M422,314.74c0,82.8-87.299,150-195,150v-300C334.701,164.74,422,231.94,422,314.74z"/>
<path style="fill:#EFE6DE;" d="M512,162.039c0,12.001-4.799,23.401-13.2,32.1c-13.801,13.801-34.501,16.5-51.301,8.699l-45,45
	c-2.699,3.602-6.899,6-11.699,6h-1.501L359.9,226.84l-22.2-20.4c-5.7-5.7-5.7-15.3,0-21.301l46.199-45.901
	c-7.8-16.8-5.099-37.498,9.001-51.299c16.8-17.1,46.5-17.1,63.6,0c8.099,8.101,12.299,18.6,12.9,29.399
	c10.8,0.601,21.299,4.799,29.399,12.9C507.201,138.941,512,150.041,512,162.039z"/>
<path style="fill:#DFCCBF;" d="M512,162.039c0,12.001-4.799,23.401-13.2,32.1c-13.801,13.801-34.501,16.5-51.301,8.699l-45,45
	c-2.699,3.602-6.899,6-11.699,6h-1.501L359.9,226.84l109.501-109.5c10.8,0.601,21.299,4.799,29.399,12.9
	C507.201,138.941,512,150.041,512,162.039z"/>
<path style="fill:#BF6015;" d="M392.601,194.14C360.5,161.739,287,193.539,254.9,225.94c-34.499,34.2-21,63.6,10.501,95.4
	c18.898,18.9,36.899,30.901,54.899,30.901c13.2,0,26.4-6.301,40.501-20.4C393.199,299.44,424.999,226.24,392.601,194.14z"/>
<path style="fill:#994C10;" d="M360.801,331.84c-14.101,14.099-27.301,20.4-40.501,20.4c-17.999,0-36-12.001-54.899-30.901
	l127.2-127.2C424.999,226.24,393.199,299.44,360.801,331.84z"/>
<path style="fill:#6ECD24;" d="M165,434.74v30H45v-30c0-33.001,27.001-60,60-60c16.5,0,31.5,6.599,42.299,17.699
	C158.401,403.241,165,418.241,165,434.74z"/>
<path style="fill:#66BD21;" d="M165,434.74v30h-60v-90c16.5,0,31.5,6.599,42.299,17.699C158.401,403.241,165,418.241,165,434.74z"/>
<path style="fill:#FEDB41;" d="M287,434.74v30H165v-30c0-33.001,29.001-60,62-60c16.5,0,31.5,6.599,42.299,17.699
	C280.401,403.241,287,418.241,287,434.74z"/>
<path style="fill:#FCBF29;" d="M287,434.74v30h-60v-90c16.5,0,31.5,6.599,42.299,17.699C280.401,403.241,287,418.241,287,434.74z"/>
<path style="fill:#DFCCBF;" d="M452,434.74v15c0,24.899-20.099,45-45,45H45c-24.901,0-45-20.101-45-45v-15H452z"/>
<path style="fill:#C8AD92;" d="M452,434.74v15c0,24.899-20.099,45-45,45H227v-60H452z"/>
<g>
	<path style="fill:#1DE8F1;" d="M22.734,162.221l16.641-24.961C33.413,133.29,30,126.903,30,119.74c0-7.163,3.413-13.55,9.375-17.52
		c14.238-9.492,22.734-25.371,22.734-42.48s-8.496-32.988-22.734-42.48L22.734,42.221c5.962,3.97,9.375,10.356,9.375,17.52
		c0,7.164-3.413,13.55-9.375,17.52C8.496,86.752,0,102.631,0,119.74S8.496,152.729,22.734,162.221z"/>
	<path style="fill:#1DE8F1;" d="M137.109,59.74c0-17.109-8.496-32.988-22.734-42.48L97.734,42.221
		c5.962,3.97,9.375,10.356,9.375,17.52c0,7.164-3.413,13.55-9.375,17.52C83.496,86.752,75,102.631,75,119.74
		s8.496,32.988,22.734,42.48l16.641-24.961c-5.962-3.97-9.375-10.356-9.375-17.52s3.413-13.55,9.375-17.52
		C128.613,92.729,137.109,76.85,137.109,59.74z"/>
</g>
<g>
</g>
<g>
</g>
<g>
</g>
<g>
</g>
<g>
</g>
<g>
</g>
<g>
</g>
<g>
</g>
<g>
</g>
<g>
</g>
<g>
</g>
<g>
</g>
<g>
</g>
<g>
</g>
<g>
</g>
</svg>
